<svg width="835" height="166" viewBox="0 0 835 166" fill="none" xmlns="http://www.w3.org/2000/svg">
<path d="M40.0439 165.134C45.2848 165.134 50.1888 164.31 54.7559 162.663C59.3978 160.941 63.5531 158.545 67.2217 155.476C70.8903 152.331 73.8851 148.625 76.2061 144.357H76.6553V163H101.138V81.5791C101.138 73.7178 99.1911 66.8672 95.2979 61.0273C91.4046 55.1875 85.9391 50.6579 78.9014 47.4385C71.8636 44.2191 63.5156 42.6094 53.8574 42.6094C44.1992 42.6094 35.8512 44.1816 28.8135 47.3262C21.7757 50.4707 16.2728 54.7757 12.3047 60.2412C8.33659 65.6318 6.05306 71.7337 5.4541 78.5469L5.3418 79.7822H28.252L28.4766 78.7715C29.5247 74.0547 32.1452 70.1989 36.3379 67.2041C40.6055 64.2093 46.2207 62.7119 53.1836 62.7119C60.7454 62.7119 66.5479 64.5837 70.5908 68.3271C74.6338 71.9958 76.6553 77.0869 76.6553 83.6006V118.752C76.6553 123.843 75.3451 128.448 72.7246 132.565C70.1042 136.608 66.5104 139.79 61.9434 142.111C57.4512 144.432 52.36 145.593 46.6699 145.593C40.1562 145.593 34.9154 144.095 30.9473 141.101C27.054 138.106 25.1074 134.025 25.1074 128.859V128.635C25.1074 123.618 27.054 119.613 30.9473 116.618C34.9154 113.549 40.5306 111.789 47.793 111.34L89.2334 108.757V91.6865L44.5361 94.3818C35.2523 94.9059 27.3161 96.6279 20.7275 99.5479C14.2139 102.468 9.23503 106.436 5.79102 111.452C2.34701 116.394 0.625 122.308 0.625 129.196V129.421C0.625 136.459 2.27214 142.673 5.56641 148.063C8.86068 153.454 13.4652 157.647 19.3799 160.642C25.2946 163.636 32.1826 165.134 40.0439 165.134Z" fill="#26634D"/>
<path d="M187.5 165.358C197.458 165.358 206.143 162.85 213.555 157.834C220.967 152.818 226.694 145.743 230.737 136.608C234.855 127.399 236.914 116.506 236.914 103.928V103.815C236.914 91.2373 234.855 80.3812 230.737 71.2471C226.619 62.113 220.892 55.0752 213.555 50.1338C206.217 45.1175 197.607 42.6094 187.725 42.6094C182.184 42.6094 176.981 43.5078 172.114 45.3047C167.323 47.1016 163.092 49.6846 159.424 53.0537C155.755 56.348 152.76 60.3161 150.439 64.958H149.878V0.944336H125.508V163H149.878V143.01H150.439C152.76 147.652 155.718 151.62 159.312 154.914C162.98 158.208 167.173 160.791 171.89 162.663C176.681 164.46 181.885 165.358 187.5 165.358ZM180.986 144.357C174.922 144.357 169.531 142.71 164.814 139.416C160.098 136.047 156.392 131.33 153.696 125.266C151.076 119.201 149.766 112.089 149.766 103.928V103.815C149.766 95.6546 151.113 88.5794 153.809 82.5898C156.504 76.5254 160.173 71.846 164.814 68.5518C169.531 65.1826 174.922 63.498 180.986 63.498C187.35 63.498 192.853 65.1452 197.495 68.4395C202.137 71.6589 205.693 76.3008 208.164 82.3652C210.71 88.3548 211.982 95.5049 211.982 103.815V103.928C211.982 112.238 210.71 119.463 208.164 125.603C205.693 131.667 202.137 136.309 197.495 139.528C192.853 142.748 187.35 144.357 180.986 144.357Z" fill="#26634D"/>
<path d="M306.431 165.358C317.661 165.358 327.469 162.888 335.854 157.946C344.24 152.93 350.754 145.855 355.396 136.721C360.112 127.587 362.471 116.656 362.471 103.928V103.703C362.471 91.0501 360.112 80.1566 355.396 71.0225C350.754 61.8883 344.202 54.888 335.742 50.0215C327.357 45.0801 317.549 42.6094 306.318 42.6094C295.163 42.6094 285.355 45.0801 276.895 50.0215C268.509 54.9629 261.958 62.0007 257.241 71.1348C252.599 80.2689 250.278 91.125 250.278 103.703V103.928C250.278 116.581 252.599 127.512 257.241 136.721C261.883 145.855 268.397 152.93 276.782 157.946C285.243 162.888 295.125 165.358 306.431 165.358ZM306.543 144.919C300.179 144.919 294.639 143.309 289.922 140.09C285.205 136.87 281.536 132.229 278.916 126.164C276.37 120.025 275.098 112.613 275.098 103.928V103.703C275.098 95.0931 276.408 87.7559 279.028 81.6914C281.649 75.627 285.28 70.985 289.922 67.7656C294.639 64.5462 300.104 62.9365 306.318 62.9365C312.607 62.9365 318.11 64.5462 322.827 67.7656C327.544 70.9102 331.175 75.5521 333.721 81.6914C336.266 87.7559 337.539 95.0931 337.539 103.703V103.928C337.539 112.613 336.266 120.025 333.721 126.164C331.175 132.229 327.581 136.87 322.939 140.09C318.298 143.309 312.832 144.919 306.543 144.919Z" fill="#26634D"/>
<path d="M421.543 165.358C427.533 165.358 432.848 164.497 437.49 162.775C442.207 161.053 446.25 158.695 449.619 155.7C452.988 152.631 455.684 149.149 457.705 145.256H458.267V163H482.637V44.8555H458.267V113.811C458.267 118.378 457.593 122.57 456.245 126.389C454.972 130.132 453.101 133.352 450.63 136.047C448.159 138.667 445.202 140.726 441.758 142.224C438.389 143.646 434.533 144.357 430.19 144.357C421.805 144.357 415.516 141.999 411.323 137.282C407.205 132.491 405.146 125.64 405.146 116.73V44.8555H380.664V121.335C380.664 130.394 382.274 138.218 385.493 144.807C388.713 151.395 393.354 156.486 399.419 160.08C405.558 163.599 412.933 165.358 421.543 165.358Z" fill="#26634D"/>
<path d="M536.992 164.685C540.811 164.685 544.479 164.123 547.998 163C551.517 161.877 554.661 160.192 557.432 157.946C560.277 155.625 562.523 152.855 564.17 149.636V148.962C562.747 150.983 560.876 152.631 558.555 153.903C556.309 155.176 553.688 155.812 550.693 155.812C545.977 155.812 542.795 154.128 541.147 150.759C539.5 147.39 539.425 142.299 540.923 135.485L556.758 60.8027L580.903 62.8242L581.914 58.1074L556.87 60.0166L562.598 31.9404L536.992 36.0957L532.5 58.332L520.034 62.1504L519.922 62.8242H531.489L517.339 130.544C514.943 141.774 515.654 150.272 519.473 156.037C523.291 161.727 529.131 164.61 536.992 164.685Z" fill="#26634D"/>
<path d="M657.383 165.358C663.372 165.358 668.688 164.497 673.33 162.775C678.047 161.053 682.09 158.695 685.459 155.7C688.828 152.631 691.523 149.149 693.545 145.256H694.106V163H718.477V44.8555H694.106V113.811C694.106 118.378 693.433 122.57 692.085 126.389C690.812 130.132 688.94 133.352 686.47 136.047C683.999 138.667 681.042 140.726 677.598 142.224C674.229 143.646 670.373 144.357 666.03 144.357C657.645 144.357 651.356 141.999 647.163 137.282C643.045 132.491 640.986 125.64 640.986 116.73V44.8555H616.504V121.335C616.504 130.394 618.114 138.218 621.333 144.807C624.552 151.395 629.194 156.486 635.259 160.08C641.398 163.599 648.773 165.358 657.383 165.358Z" fill="#26634D"/>
<path d="M786.87 165.358C796.154 165.358 804.39 163.824 811.577 160.754C818.84 157.684 824.53 153.417 828.647 147.951C832.765 142.486 834.824 136.159 834.824 128.972V128.859C834.824 120.324 832.279 113.549 827.188 108.532C822.171 103.441 813.636 99.5104 801.582 96.7402L782.266 92.248C778.148 91.2747 774.779 90.0768 772.158 88.6543C769.538 87.2318 767.629 85.5472 766.431 83.6006C765.308 81.654 764.746 79.4827 764.746 77.0869V76.9746C764.746 73.8301 765.607 71.0973 767.329 68.7764C769.051 66.3805 771.522 64.5462 774.741 63.2734C777.961 62.0007 781.742 61.3643 786.084 61.3643C792.897 61.3643 798.288 63.0114 802.256 66.3057C806.224 69.5251 808.545 73.7178 809.219 78.8838L809.331 79.6699H832.129V78.3223C831.755 71.6589 829.658 65.6318 825.84 60.2412C822.096 54.7757 816.855 50.4707 810.117 47.3262C803.379 44.1816 795.368 42.6094 786.084 42.6094C777.025 42.6094 769.051 44.1068 762.163 47.1016C755.275 50.0215 749.922 54.1768 746.104 59.5674C742.285 64.8831 740.376 71.0973 740.376 78.21V78.3223C740.376 84.0124 741.611 89.0286 744.082 93.3711C746.553 97.7135 750.259 101.382 755.2 104.377C760.216 107.372 766.468 109.73 773.955 111.452L793.271 115.832C799.635 117.404 804.053 119.351 806.523 121.672C808.994 123.993 810.229 127.062 810.229 130.881V130.993C810.229 134.213 809.294 136.983 807.422 139.304C805.55 141.625 802.892 143.422 799.448 144.694C796.004 145.892 791.812 146.491 786.87 146.491C779.458 146.491 773.693 144.994 769.575 141.999C765.457 138.929 762.799 134.699 761.602 129.309L761.377 128.186H737.344L737.456 129.196C738.28 136.384 740.713 142.71 744.756 148.176C748.799 153.566 754.339 157.797 761.377 160.866C768.49 163.861 776.987 165.358 786.87 165.358Z" fill="#26634D"/>
</svg>
