<svg width="1110" height="382" viewBox="0 0 1110 382" fill="none" xmlns="http://www.w3.org/2000/svg">
<path d="M0.169922 165H23.1924V45.5078H34.7598L8.48047 7.43652L72.7188 165H91.3613L155.712 7.43652L129.433 45.5078H141V165H164.022V2.94434H134.823L82.377 132.207H81.7031L29.2568 2.94434H0.169922V165Z" fill="#26634D"/>
<path d="M181.991 165H208.495L254.315 29.7852H261.391V2.94434H240.951L181.991 165ZM210.629 121.201H298.451L291.151 100.986H217.929L210.629 121.201ZM300.585 165H327.089L268.241 2.94434H254.877V29.7852L300.585 165Z" fill="#26634D"/>
<path d="M344.945 165H445.683V143.213H370.102V2.94434H344.945V165Z" fill="#26634D"/>
<path d="M467.133 165H570.004V143.213H492.289V93.0127H565.849V71.8994H492.289V24.7314H570.004V2.94434H467.133V165Z" fill="#26634D"/>
<path d="M629.076 27.4268L646.596 165.225H656.928L730.487 32.9297C734.905 24.9186 738.573 18.929 741.493 14.9609C744.413 10.9928 747.108 8.22266 749.579 6.65039C752.05 5.07812 754.82 4.02995 757.89 3.50586L758.002 2.83203H721.391L721.278 3.50586C725.92 4.25456 729.252 5.48991 731.273 7.21191C733.295 8.93392 733.894 11.779 733.07 15.7471C732.247 19.6403 729.888 25.293 725.995 32.7051L670.292 139.395H670.741L657.602 27.5391C657.003 22.2233 657.077 17.9183 657.826 14.624C658.575 11.2549 660.072 8.70931 662.318 6.9873C664.564 5.19043 667.709 4.02995 671.752 3.50586L671.864 2.83203H615.038L614.926 3.50586C617.322 3.88021 619.455 4.74121 621.327 6.08887C623.199 7.43652 624.771 9.79492 626.044 13.1641C627.317 16.4583 628.327 21.2126 629.076 27.4268Z" fill="#26634D"/>
<path d="M761.012 165H786.168V2.94434H761.012V165Z" fill="#26634D"/>
<path d="M885.333 167.695C897.312 167.695 908.093 165.449 917.677 160.957C927.26 156.465 935.121 150.176 941.261 142.09C947.475 133.929 951.406 124.458 953.053 113.677L953.277 112.554H928.233L927.896 113.677C925.95 120.49 922.993 126.255 919.024 130.972C915.056 135.688 910.227 139.282 904.537 141.753C898.922 144.149 892.521 145.347 885.333 145.347C875.375 145.347 866.69 142.839 859.278 137.822C851.866 132.806 846.139 125.693 842.096 116.484C838.053 107.201 836.031 96.3444 836.031 83.916V83.8037C836.031 71.3005 838.053 60.4818 842.096 51.3477C846.139 42.2135 851.829 35.1383 859.166 30.1221C866.578 25.1058 875.3 22.5977 885.333 22.5977C892.67 22.5977 899.146 23.833 904.762 26.3037C910.452 28.6995 915.206 32.181 919.024 36.748C922.918 41.3151 925.725 46.7806 927.447 53.1445L928.121 55.3906H953.165L953.053 54.2676C951.406 43.5612 947.475 34.165 941.261 26.0791C935.047 17.9932 927.148 11.6667 917.564 7.09961C907.981 2.53255 897.237 0.249023 885.333 0.249023C869.985 0.249023 856.695 3.6556 845.465 10.4688C834.234 17.207 825.549 26.8278 819.41 39.3311C813.271 51.8343 810.201 66.6585 810.201 83.8037V83.916C810.201 101.061 813.271 115.923 819.41 128.501C825.549 141.004 834.234 150.662 845.465 157.476C856.77 164.289 870.06 167.695 885.333 167.695Z" fill="#26634D"/>
<path d="M976.188 165H1001.34V93.2373H1084.45V165H1109.72V2.94434H1084.45V71.4502H1001.34V2.94434H976.188V165Z" fill="#26634D"/>
<path d="M154.409 379H211.572C227.744 379 241.52 375.818 252.9 369.454C264.355 363.015 273.115 353.731 279.18 341.603C285.244 329.399 288.276 314.762 288.276 297.691V297.467C288.276 280.396 285.207 265.872 279.067 253.893C273.003 241.913 264.243 232.779 252.788 226.49C241.408 220.126 227.669 216.944 211.572 216.944H154.409V379ZM179.565 357.213V238.731H209.214C220.669 238.731 230.327 241.015 238.188 245.582C246.125 250.074 252.152 256.738 256.27 265.572C260.462 274.332 262.559 285.038 262.559 297.691V297.916C262.559 310.644 260.5 321.425 256.382 330.26C252.264 339.094 246.237 345.795 238.301 350.362C230.365 354.929 220.669 357.213 209.214 357.213H179.565Z" fill="#26634D"/>
<path d="M312.31 379H337.466V216.944H312.31V379Z" fill="#26634D"/>
<path d="M437.08 381.695C448.011 381.695 457.782 380.123 466.392 376.979C475.076 373.834 482.414 369.229 488.403 363.165C494.468 357.101 499.072 349.726 502.217 341.041C505.361 332.356 506.934 322.548 506.934 311.617V294.996H439.551V315.548H482.002V318.243C481.927 326.404 479.98 333.591 476.162 339.806C472.419 345.945 467.178 350.737 460.439 354.181C453.776 357.625 446.064 359.347 437.305 359.347C429.593 359.347 422.668 357.924 416.528 355.079C410.389 352.234 405.111 348.116 400.693 342.726C396.351 337.335 393.019 330.821 390.698 323.185C388.377 315.473 387.217 306.788 387.217 297.13V297.018C387.217 284.365 389.201 273.546 393.169 264.562C397.137 255.502 402.827 248.577 410.239 243.785C417.726 238.993 426.598 236.598 436.855 236.598C447.412 236.598 456.284 239.181 463.472 244.347C470.734 249.513 476.05 256.775 479.419 266.134L479.868 267.369H505.811L505.361 265.46C503.115 255.652 498.997 246.892 493.008 239.181C487.018 231.469 479.307 225.405 469.873 220.987C460.439 216.495 449.434 214.249 436.855 214.249C421.507 214.249 408.18 217.618 396.875 224.356C385.57 231.095 376.847 240.641 370.708 252.994C364.569 265.348 361.499 280.06 361.499 297.13V297.242C361.499 310.27 363.258 321.987 366.777 332.394C370.296 342.8 375.312 351.673 381.826 359.01C388.415 366.347 396.351 371.962 405.635 375.855C414.993 379.749 425.475 381.695 437.08 381.695Z" fill="#26634D"/>
<path d="M531.528 379H556.685V216.944H531.528V379Z" fill="#26634D"/>
<path d="M626.65 379H651.919V238.731H701.445V216.944H577.124V238.731H626.65V379Z" fill="#26634D"/>
<path d="M835.088 354.405L817.456 216.607H807.236L733.34 349.576C729.072 357.288 725.479 363.128 722.559 367.096C719.714 370.989 717.056 373.684 714.585 375.182C712.114 376.679 709.344 377.727 706.274 378.326L706.162 379H742.773L742.886 378.326C738.244 377.577 734.912 376.342 732.891 374.62C730.869 372.898 730.233 370.128 730.981 366.31C731.805 362.416 734.089 356.876 737.832 349.688L793.872 242.438H793.423L806.562 354.293C807.161 359.609 807.087 363.951 806.338 367.32C805.589 370.615 804.092 373.16 801.846 374.957C799.6 376.679 796.455 377.802 792.412 378.326L792.3 379H849.126L849.238 378.326C846.842 377.877 844.709 377.016 842.837 375.743C840.965 374.396 839.393 372.075 838.12 368.78C836.847 365.411 835.837 360.619 835.088 354.405ZM752.207 319.928H815.098L814.985 317.794H753.105L752.207 319.928Z" fill="#26634D"/>
<path d="M863.276 379H964.014V357.213H888.433V216.944H863.276V379Z" fill="#26634D"/>
</svg>
