<svg width="855" height="166" viewBox="0 0 855 166" fill="none" xmlns="http://www.w3.org/2000/svg">
<path d="M56.3145 165.358C67.5449 165.358 77.3529 162.888 85.7383 157.946C94.1237 152.93 100.637 145.855 105.279 136.721C109.996 127.587 112.354 116.656 112.354 103.928V103.703C112.354 91.0501 109.996 80.1566 105.279 71.0225C100.637 61.8883 94.0863 54.888 85.626 50.0215C77.2406 45.0801 67.4326 42.6094 56.2021 42.6094C45.0465 42.6094 35.2386 45.0801 26.7783 50.0215C18.3929 54.9629 11.8418 62.0007 7.125 71.1348C2.48307 80.2689 0.162109 91.125 0.162109 103.703V103.928C0.162109 116.581 2.48307 127.512 7.125 136.721C11.7669 145.855 18.2806 152.93 26.666 157.946C35.1263 162.888 45.0091 165.358 56.3145 165.358ZM56.4268 144.919C50.0628 144.919 44.5225 143.309 39.8057 140.09C35.0889 136.87 31.4202 132.229 28.7998 126.164C26.2542 120.025 24.9814 112.613 24.9814 103.928V103.703C24.9814 95.0931 26.2917 87.7559 28.9121 81.6914C31.5326 75.627 35.1637 70.985 39.8057 67.7656C44.5225 64.5462 49.988 62.9365 56.2021 62.9365C62.4912 62.9365 67.9941 64.5462 72.7109 67.7656C77.4277 70.9102 81.0589 75.5521 83.6045 81.6914C86.1501 87.7559 87.4229 95.0931 87.4229 103.703V103.928C87.4229 112.613 86.1501 120.025 83.6045 126.164C81.0589 132.229 77.4652 136.87 72.8232 140.09C68.1813 143.309 62.7158 144.919 56.4268 144.919Z" fill="#26634D"/>
<path d="M171.427 165.358C177.416 165.358 182.732 164.497 187.374 162.775C192.091 161.053 196.134 158.695 199.503 155.7C202.872 152.631 205.567 149.149 207.589 145.256H208.15V163H232.521V44.8555H208.15V113.811C208.15 118.378 207.477 122.57 206.129 126.389C204.856 130.132 202.984 133.352 200.514 136.047C198.043 138.667 195.086 140.726 191.642 142.224C188.272 143.646 184.417 144.357 180.074 144.357C171.689 144.357 165.4 141.999 161.207 137.282C157.089 132.491 155.03 125.64 155.03 116.73V44.8555H130.548V121.335C130.548 130.394 132.158 138.218 135.377 144.807C138.596 151.395 143.238 156.486 149.303 160.08C155.442 163.599 162.817 165.358 171.427 165.358Z" fill="#26634D"/>
<path d="M256.441 163H280.924V92.585C280.924 86.7451 281.935 81.7663 283.956 77.6484C285.978 73.4557 288.897 70.2738 292.716 68.1025C296.534 65.8564 301.026 64.7334 306.192 64.7334C308.588 64.7334 310.759 64.8831 312.706 65.1826C314.653 65.4072 316.113 65.7067 317.086 66.0811V43.5078C316.188 43.2832 314.99 43.096 313.492 42.9463C312.07 42.7217 310.46 42.6094 308.663 42.6094C301.925 42.6094 296.16 44.6309 291.368 48.6738C286.576 52.6419 283.245 58.1074 281.373 65.0703H280.924V44.8555H256.441V163Z" fill="#26634D"/>
<path d="M401.876 163H427.145L451.739 74.5039H452.301L477.008 163H502.389L534.732 44.8555H510.587L489.137 137.844H488.575L463.868 44.8555H440.396L415.914 137.844H415.353L393.902 44.8555H369.532L401.876 163Z" fill="#26634D"/>
<path d="M599.869 165.358C611.1 165.358 620.908 162.888 629.293 157.946C637.678 152.93 644.192 145.855 648.834 136.721C653.551 127.587 655.909 116.656 655.909 103.928V103.703C655.909 91.0501 653.551 80.1566 648.834 71.0225C644.192 61.8883 637.641 54.888 629.181 50.0215C620.795 45.0801 610.987 42.6094 599.757 42.6094C588.601 42.6094 578.793 45.0801 570.333 50.0215C561.948 54.9629 555.396 62.0007 550.68 71.1348C546.038 80.2689 543.717 91.125 543.717 103.703V103.928C543.717 116.581 546.038 127.512 550.68 136.721C555.322 145.855 561.835 152.93 570.221 157.946C578.681 162.888 588.564 165.358 599.869 165.358ZM599.981 144.919C593.618 144.919 588.077 143.309 583.36 140.09C578.644 136.87 574.975 132.229 572.354 126.164C569.809 120.025 568.536 112.613 568.536 103.928V103.703C568.536 95.0931 569.846 87.7559 572.467 81.6914C575.087 75.627 578.718 70.985 583.36 67.7656C588.077 64.5462 593.543 62.9365 599.757 62.9365C606.046 62.9365 611.549 64.5462 616.266 67.7656C620.982 70.9102 624.614 75.5521 627.159 81.6914C629.705 87.7559 630.978 95.0931 630.978 103.703V103.928C630.978 112.613 629.705 120.025 627.159 126.164C624.614 132.229 621.02 136.87 616.378 140.09C611.736 143.309 606.271 144.919 599.981 144.919Z" fill="#26634D"/>
<path d="M674.664 163H699.146V92.585C699.146 86.7451 700.157 81.7663 702.179 77.6484C704.2 73.4557 707.12 70.2738 710.938 68.1025C714.757 65.8564 719.249 64.7334 724.415 64.7334C726.811 64.7334 728.982 64.8831 730.929 65.1826C732.875 65.4072 734.335 65.7067 735.309 66.0811V43.5078C734.41 43.2832 733.212 43.096 731.715 42.9463C730.292 42.7217 728.683 42.6094 726.886 42.6094C720.147 42.6094 714.382 44.6309 709.591 48.6738C704.799 52.6419 701.467 58.1074 699.596 65.0703H699.146V44.8555H674.664V163Z" fill="#26634D"/>
<path d="M751.817 163H776.188V0.944336H751.817V163ZM826.275 163H854.464L800.333 90.7881L784.498 108.195L826.275 163ZM771.92 124.704L793.595 103.029H797.301L852.667 44.8555H824.029L776.749 95.168H771.92V124.704Z" fill="#26634D"/>
</svg>
